<?xml version="1.0" encoding="UTF-8"?>
<svg version="1.1" viewBox="0 0 50 35" xml:space="preserve" xmlns="http://www.w3.org/2000/svg"><g transform="translate(-73.93 -93.91)"><rect x="73.93" y="93.91" width="50" height="35" fill="#fff" style="paint-order:stroke fill markers"/><g transform="matrix(.5791 0 0 .5791 35.889 .4076)"><g transform="translate(.18749 59.655)" stroke-width="1.7268"><g stroke-linecap="square" stroke-linejoin="round" stroke-width="1.2088"><path d="m127.41 136.07" fill="none" stroke="#efd038" style="paint-order:stroke fill markers"/><path d="m89.933 136.07a20.241 20.241 0 0 1-1.5009-7.6489 20.241 20.241 0 0 1 20.241-20.241 20.241 20.241 0 0 1 20.241 20.241 20.241 20.241 0 0 1-1.5009 7.6489" fill="#ffd203" stroke="#efd345" style="paint-order:stroke fill markers"/><path d="m89.933 136.07" fill="none" stroke="#efd038" style="paint-order:stroke fill markers"/></g><g><path d="m100.93 136.06a13.858 13.858 0 0 1-2.3806-7.7663 13.858 13.858 0 0 1 13.858-13.858 13.858 13.858 0 0 1 13.858 13.858v0a13.858 13.858 0 0 1-2.3806 7.7663" fill="#f47e24" stroke="#e58913" stroke-linecap="round" stroke-linejoin="bevel" stroke-width="1.2088" style="paint-order:stroke markers fill"/><circle cx="108.7" cy="128.42" r="7.586" fill="#eb3125" stroke="#de3a17" stroke-linecap="round" stroke-linejoin="bevel" stroke-width=".97565" style="paint-order:stroke markers fill"/><rect x="87.994" y="136.07" width="41.359" height="2.3732" fill="#fff" style="paint-order:stroke fill markers"/></g></g><g transform="translate(-1.9401e-6 59.655)" stroke-linecap="round" stroke-linejoin="bevel" stroke-width=".11224"><path d="m128.16 156.32q-0.14435 0.0892-0.36989 0.12797-0.22103 0.0388-0.45559 0.0388-0.28419 0-0.54131-0.0737-0.2526-0.0776-0.44657-0.24432-0.19397-0.17062-0.31125-0.43821-0.11277-0.27146-0.11277-0.65537 0-0.39944 0.12631-0.66702 0.13081-0.27146 0.3338-0.43433 0.20749-0.16676 0.4601-0.23656 0.25261-0.0737 0.50522-0.0737 0.27066 0 0.4556 0.0311 0.18945 0.0311 0.31125 0.0737l-0.1218 0.44984q-0.10375-0.0427-0.24809-0.062-0.13984-0.0194-0.34283-0.0194-0.3744 0-0.60445 0.2288-0.22555 0.2288-0.22555 0.70967 0 0.20941 0.0541 0.38392 0.0541 0.17063 0.16239 0.29473 0.11277 0.12022 0.27516 0.19002 0.1669 0.0659 0.38343 0.0659 0.20299 0 0.34283-0.0349t0.24358-0.0892z" style="paint-order:stroke markers fill"/><path d="m130.31 155.29h-1.1548v1.1362h-0.61799v-2.7146h0.61799v1.1052h1.1548v-1.1052h0.61799v2.7146h-0.61799z" style="paint-order:stroke markers fill"/><path d="m131.54 153.71h0.61799v2.7146h-0.61799z" style="paint-order:stroke markers fill"/><path d="m134.76 156.43h-1.9983v-2.7146h0.61799v2.2415h1.3803z" style="paint-order:stroke markers fill"/><path d="m135.08 153.71h1.872v0.47312h-1.254v0.63211h1.1412v0.47312h-1.1412v0.66313h1.2766v0.47311h-1.8946z" style="paint-order:stroke markers fill"/><path transform="matrix(1.0654 0 0 .93858 -1.0699e-6 -1.5396e-6)" d="m80.225 161.08-1.9103-3.3924h-1.1396v3.3924h-1.9432v-8.8862h3.2541q1.739 0 2.6019 0.67849 0.86292 0.67848 0.86292 1.9564 0 0.90244-0.48745 1.5348-0.48745 0.63237-1.3504 0.88927l2.2989 3.8272zm-0.23055-6.1722q0-0.61919-0.40841-0.90903-0.40841-0.29643-1.3043-0.29643h-1.1067v2.4768h1.1593q1.66 0 1.66-1.2713z" style="paint-order:stroke markers fill"/><path d="m88.534 144.86h1.8686v6.331h-1.8686zm-0.2731-1.7853q0-0.3672 0.30184-0.62043 0.31622-0.2659 0.86241-0.2659t0.87678 0.2659q0.34496 0.25323 0.34496 0.62043t-0.34496 0.62044q-0.33059 0.24058-0.87678 0.24058t-0.86241-0.24058q-0.30184-0.25324-0.30184-0.62044z" style="paint-order:stroke markers fill"/><path d="m94.649 149.44q0-0.25324-0.24435-0.40519-0.24435-0.15193-0.60369-0.27856-0.35934-0.12662-0.79054-0.25323-0.4312-0.13929-0.79054-0.3672-0.35934-0.24058-0.60369-0.59512-0.24435-0.36719-0.24435-0.93698 0-0.93699 0.63243-1.4308 0.63243-0.49381 1.8254-0.49381 0.81929 0 1.4805 0.15193 0.66118 0.15195 1.0349 0.34188l-0.41683 1.1902q-0.33059-0.11396-0.83366-0.24058-0.50307-0.12662-1.0205-0.12662-0.83366 0-0.83366 0.56979 0 0.22791 0.24435 0.36719t0.60369 0.26591q0.35934 0.11395 0.79054 0.25323 0.4312 0.13929 0.79054 0.3672 0.35934 0.21526 0.60369 0.56979 0.24435 0.35453 0.24435 0.91166 0 0.96231-0.7043 1.5194-0.68993 0.54445-2.0842 0.54445-0.76179 0-1.4373-0.17725-0.66118-0.16461-1.078-0.39253l0.51744-1.2282q0.33059 0.16461 0.87678 0.32921 0.54619 0.15194 1.1211 0.15194 0.41683 0 0.66118-0.13927 0.25872-0.13929 0.25872-0.4685z" style="paint-order:stroke markers fill"/><path d="m97.328 144.86h1.8686v6.331h-1.8686zm-0.2731-1.7853q0-0.3672 0.30184-0.62043 0.31622-0.2659 0.86241-0.2659t0.87678 0.2659q0.34496 0.25323 0.34496 0.62043t-0.34496 0.62044q-0.33059 0.24058-0.87678 0.24058t-0.86241-0.24058q-0.30184-0.25324-0.30184-0.62044z" style="paint-order:stroke markers fill"/><path d="m104.86 151.19v-3.596q0-0.77238-0.25872-1.1143-0.24435-0.34187-0.84803-0.34187-0.53182 0-0.90553 0.27856-0.35934 0.2659-0.51744 0.67108v4.1025h-1.8686v-6.331h1.4805l0.2156 0.83569h0.0575q0.33059-0.40518 0.87678-0.70907 0.54619-0.30388 1.4086-0.30388 0.53182 0 0.94865 0.12661 0.41683 0.12662 0.70429 0.41784 0.28747 0.29124 0.43121 0.79771 0.14374 0.49381 0.14374 1.2282v3.9379z" style="paint-order:stroke markers fill"/><path d="m113.81 151.19q0 1.3801-0.84804 2.0259-0.84803 0.65842-2.3716 0.65842-1.0349 0-1.6386-0.12661-0.58932-0.12662-0.89116-0.26591l0.38809-1.3042q0.33058 0.11396 0.76179 0.22792 0.44558 0.11396 1.0924 0.11396 0.97739 0 1.3224-0.37986 0.35933-0.3672 0.35933-1.0383v-0.40519h-0.0575q-0.50307 0.59512-1.7823 0.59512-1.3942 0-2.0842-0.75972-0.67556-0.75972-0.67556-2.3804 0-1.6967 0.91991-2.5704 0.9199-0.87367 2.6735-0.87367 0.9199 0 1.6386 0.11395 0.73304 0.11396 1.193 0.26591zm-3.1622-1.2156q0.54619 0 0.83365-0.21525 0.30185-0.21525 0.45996-0.64576v-2.8489q-0.44558-0.16461-1.1068-0.16461-0.71867 0-1.1211 0.48116-0.40246 0.46849-0.40246 1.5068 0 0.92432 0.34497 1.4055 0.34496 0.48115 0.99177 0.48115z" style="paint-order:stroke markers fill"/><path d="m121.47 148.81q0-0.40518-0.34496-0.65842-0.33059-0.25324-0.84803-0.45583-0.50308-0.21525-1.1068-0.43051-0.5893-0.22791-1.1068-0.54446-0.50307-0.32921-0.84804-0.81036-0.33058-0.48116-0.33058-1.2282 0-0.64576 0.24435-1.1143 0.24435-0.48116 0.68992-0.7977 0.45996-0.31655 1.078-0.4685 0.61806-0.15194 1.3799-0.15194 0.87678 0 1.653 0.13928 0.77616 0.12662 1.2792 0.37986l-0.61805 1.4561q-0.31623-0.17727-0.94865-0.31655-0.63244-0.15194-1.3655-0.15194-0.68993 0-1.0636 0.24057-0.35934 0.24058-0.35934 0.64576 0 0.37986 0.33059 0.6331 0.34497 0.25324 0.84804 0.46849 0.51744 0.21525 1.1068 0.44317 0.60368 0.22791 1.1068 0.55713 0.51744 0.31655 0.84804 0.7977 0.34496 0.46849 0.34496 1.1776 0 0.70908-0.2731 1.2282-0.25872 0.50649-0.74742 0.84835-0.47432 0.34188-1.1642 0.50649-0.67555 0.16459-1.4948 0.16459-1.078 0-1.8973-0.17725-0.81929-0.17727-1.2074-0.35454l0.63244-1.4814q0.1581 0.0759 0.40245 0.16461 0.25872 0.0886 0.57494 0.16459 0.31622 0.076 0.66118 0.12663 0.35934 0.0507 0.73304 0.0507 0.87679 0 1.3367-0.25324 0.47432-0.2659 0.47432-0.7977z" style="paint-order:stroke markers fill"/><path d="m125.93 144.86v3.596q0 0.77237 0.20123 1.1142 0.2156 0.34188 0.81928 0.34188 0.53182 0 0.87679-0.27857 0.35933-0.27856 0.53182-0.68375v-4.0898h1.8686v4.4064q0 0.51914 0.0575 1.0256 0.0575 0.49382 0.17249 0.89901h-1.4086l-0.33059-0.937h-0.0575q-0.33059 0.48116-0.9199 0.79771-0.58931 0.31654-1.3942 0.31654-0.54619 0-0.97739-0.12661-0.43121-0.12662-0.71867-0.41784-0.28748-0.29123-0.44558-0.78505-0.14374-0.49381-0.14374-1.2409v-3.9379z" style="paint-order:stroke markers fill"/><path d="m135.7 151.19v-3.596q0-0.77238-0.25872-1.1143-0.24435-0.34187-0.84804-0.34187-0.53182 0-0.90554 0.27856-0.35933 0.2659-0.51744 0.67108v4.1025h-1.8686v-6.331h1.4805l0.21561 0.83569h0.0575q0.33059-0.40518 0.87678-0.70907 0.5462-0.30388 1.4086-0.30388 0.53181 0 0.94865 0.12661 0.41683 0.12662 0.7043 0.41784 0.28746 0.29124 0.4312 0.79771 0.14373 0.49381 0.14373 1.2282v3.9379z" style="paint-order:stroke markers fill"/></g></g></g></svg>